<svg width="62" height="54" viewBox="0 0 62 54" fill="none" xmlns="http://www.w3.org/2000/svg">
<path fill-rule="evenodd" clip-rule="evenodd" d="M34.273 8.65116C33.0936 8.65116 31.9891 8.07442 31.3143 7.10837L28.7276 3.39702C27.2454 1.26884 24.8144 0 22.222 0C18.6087 0 12.4663 0 7.93023 0C3.54986 0 0 3.54986 0 7.93023V45.4186C0 47.5208 0.836279 49.5394 2.3214 51.0274C3.8094 52.5126 5.828 53.3488 7.93023 53.3488H54.0698C56.172 53.3488 58.1906 52.5126 59.6786 51.0274C61.1637 49.5394 62 47.5208 62 45.4186V16.5814C62 14.4792 61.1637 12.4606 59.6786 10.9726C58.1906 9.48744 56.172 8.65116 54.0698 8.65116H34.273ZM31 36.7501C32.5918 36.7501 33.8837 38.042 33.8837 39.6339C33.8837 41.2257 32.5918 42.5176 31 42.5176C29.4082 42.5176 28.1163 41.2257 28.1163 39.6339C28.1163 38.042 29.4082 36.7501 31 36.7501ZM28.8372 20.8897V32.4246C28.8372 33.6184 29.8061 34.5873 31 34.5873C32.1939 34.5873 33.1628 33.6184 33.1628 32.4246V20.8897C33.1628 19.6958 32.1939 18.7269 31 18.7269C29.8061 18.7269 28.8372 19.6958 28.8372 20.8897Z" fill="#D6D6D6"/>
</svg>
